<svg xmlns="http://www.w3.org/2000/svg" xmlns:xlink="http://www.w3.org/1999/xlink" id="Layer_1" x="0px" y="0px" viewBox="0 0 960 560" style="enable-background:new 0 0 960 560;" xml:space="preserve"><style type="text/css">	.st0{display:none;fill:#0589BA;}	.st1{fill:#0589BA;}	.st2{fill-rule:evenodd;clip-rule:evenodd;fill:#0589BA;}</style><g>	<path class="st0" d="M480,109.76c-93.87,0-170.24,76.37-170.24,170.24c0,93.87,76.37,170.24,170.24,170.24  S650.24,373.87,650.24,280C650.24,186.13,573.87,109.76,480,109.76z M598.01,398.05C566.5,429.56,524.61,447,480.05,447  c-0.01,0-0.02,0-0.02,0c-0.01,0-0.02,0-0.02,0c-44.56,0-86.45-17.44-117.96-48.95s-48.86-73.44-48.86-118  c0-44.56,17.35-86.56,48.86-118.07S435.44,113,480,113c0.01,0,0.02,0,0.02,0c0.01,0,0.02,0,0.02,0  c44.56,0,86.45,17.44,117.96,48.95c31.51,31.51,48.86,73.49,48.86,118.05C646.86,324.56,629.51,366.54,598.01,398.05z"></path>	<path class="st1" d="M480,382.21c56.36,0,102.21-45.85,102.21-102.21c0-56.36-45.85-102.21-102.21-102.21  c-56.36,0-102.21,45.85-102.21,102.21C377.79,336.36,423.64,382.21,480,382.21z M480,181.18c54.49,0,98.82,44.33,98.82,98.82  c0,54.49-44.33,98.82-98.82,98.82s-98.82-44.33-98.82-98.82C381.18,225.51,425.51,181.18,480,181.18z"></path>	<path class="st1" d="M600.33,280c0,66.34-53.97,120-120.31,120c0.01,0,0.02,0,0.02,0c66.35,0,120.33-53.65,120.33-120  c0-66.35-53.98-120-120.33-120c-0.01,0-0.02,0-0.02,0C546.36,160,600.33,213.66,600.33,280z"></path>	<path class="st1" d="M479.5,406c0.01,0,0.02,0,0.02,0c-59.38,0-108.94-42.01-121.43-97h-0.05C370.53,364,420.11,406,479.5,406z"></path>	<path class="st1" d="M604.62,155.38c-33.29-33.29-77.54-51.62-124.62-51.62c-47.07,0-91.33,18.33-124.62,51.62  c-33.29,33.29-51.62,77.54-51.62,124.62s18.33,91.33,51.62,124.62c33.29,33.29,77.54,51.62,124.62,51.62  c47.07,0,91.33-18.33,124.62-51.62c33.29-33.29,51.62-77.54,51.62-124.62S637.9,188.67,604.62,155.38z M480,450.24  c-93.87,0-170.24-76.37-170.24-170.24c0-93.87,76.37-170.24,170.24-170.24S650.24,186.13,650.24,280  C650.24,373.87,573.87,450.24,480,450.24z"></path>	<path class="st1" d="M601.01,309h-0.05c-12.49,54.99-62.06,97-121.43,97c0.01,0,0.02,0,0.02,0C538.93,406,588.51,364,601.01,309z"></path>	<path class="st1" d="M598.01,161.95C566.5,130.44,524.61,113,480.05,113c-0.01,0-0.02,0-0.02,0c44.55,0,86.43,17.45,117.94,48.95  c31.51,31.51,48.86,73.45,48.86,118c0,44.56-17.35,86.56-48.86,118.07c-31.5,31.5-73.39,48.97-117.94,48.97c0.01,0,0.02,0,0.02,0  c44.56,0,86.45-17.44,117.96-48.95c31.51-31.51,48.86-73.49,48.86-118.05C646.86,235.44,629.51,193.46,598.01,161.95z"></path>	<path class="st1" d="M646.82,280c0-44.56-17.35-86.45-48.86-117.96c-31.5-31.5-73.39-48.85-117.94-48.86  c-44.55,0.01-86.43,17.36-117.93,48.86c-31.51,31.51-48.86,73.4-48.86,117.96c0,44.56,17.35,86.45,48.86,117.96  c31.5,31.5,73.38,48.85,117.93,48.86c44.55-0.01,86.43-17.36,117.94-48.86C629.46,366.45,646.82,324.56,646.82,280z M642,281.5  c0,7.93-0.53,15.5-1.66,23.5h-0.05h-38.46h-0.05c1.45-8,2.22-15.47,2.22-23.5v-1.75l38-0.5V281.5z M480.05,160  c66.35,0,120.33,53.65,120.33,120c0,66.35-53.98,120-120.33,120c-0.01,0-0.02,0-0.02,0c-0.01,0-0.02,0-0.02,0  c-66.35,0-120.33-53.65-120.33-120c0-66.35,53.98-120,120.33-120c0.01,0,0.02,0,0.02,0C480.03,160,480.04,160,480.05,160z   M319,306.71c-2-8.22-2-16.64-2-25.22V279h38v2.5c0,8.03,0.81,15.5,2.26,23.5h-0.05H319V306.71z M479.72,443c-0.01,0-0.02,0-0.02,0  c-0.01,0-0.02,0-0.02,0c-80.06,0-147.05-58-160.29-134h0.05h38.61h0.05c12.49,54.99,62.06,97.32,121.43,97.33  c59.37-0.01,108.94-42.34,121.43-97.33h0.05h38.66h0.05c-5.6,32-21.12,62.85-45.14,86.87C564.28,426.16,523.44,443,479.72,443z   M351.59,214.02l3.4-6.5l4.58,2.39l-3.4,6.5l13.23,6.92l-2.63,5.03l-32.04-16.75l6.96-13.32l4.58,2.39l-4.33,8.28L351.59,214.02z   M345.61,192.32l3.19-4.7l29.92,20.28l-3.19,4.7L345.61,192.32z M353.79,180.73l3.7-4.31l23.53,20.16l6.08-7.1l3.92,3.36  l-9.78,11.41L353.79,180.73z M395.11,175.36l0.08-0.06L382,152.94l6.14-4.97l22.76,28.09l-4.17,3.38l-16.32-20.14l-0.08,0.06  l13.35,22.55l-4.17,3.38l-19.3-17.26l-0.08,0.06l16.09,19.86l-3.85,3.12l-22.76-28.09l6.14-4.97L395.11,175.36z M417.66,150.86  l-0.04-0.09c-2.92,0.05-5.01-1.61-6.58-5.15l-0.27-0.61c-2.35-5.29-1.08-9.3,4.11-11.6l5.94-2.64l2.1,4.72l-5.85,2.6  c-1.65,0.73-2.27,2.02-1.22,4.38l0.9,2.03c1.18,2.64,2.73,2.97,4.67,2.11l2.26-1.01l-1.64-3.68l5.19-2.31l1.64,3.68l1.37-0.61  l2.1,4.72l-1.37,0.61l4.82,10.85c0.71,1.6,1.28,2.76,2.35,3.76l-5.28,2.35c-0.53-0.55-0.88-0.96-1.63-2.38l-0.09,0.04  c-0.04,2.33-1.08,4.04-3.4,5.07c-3.82,1.7-6.95-0.13-9.11-4.99l-1.49-3.35C415.64,156,415.61,153.13,417.66,150.86z M427.76,162.03  c1.56-0.69,2.24-1.96,1.41-4.07l-3.4-7.64l-1.98,0.88c-2.36,1.05-2.89,2.64-1.53,5.71l1.36,3.07  C424.67,162.32,426.11,162.76,427.76,162.03z M441.33,124.04l17.25-3.28l0.96,5.07l-5.83,1.11l5.79,30.44l-5.58,1.06l-5.79-30.44  l-5.83,1.11L441.33,124.04z M472.72,134.99l7.79-0.29l0.19,5.16l-7.79,0.29l0.39,10.58l9.81-0.37l0.19,5.16l-15.48,0.58  l-1.35-36.12l15.48-0.58l0.19,5.16l-9.81,0.37L472.72,134.99z M490.78,119.81l5.65,0.62l-3.38,30.8l9.29,1.02l-0.56,5.13  l-14.94-1.64L490.78,119.81z M515.01,139.11l7.54,1.97l-1.3,5l-7.55-1.97l-2.67,10.24l9.49,2.48l-1.3,5l-14.99-3.91l9.13-34.98  l14.99,3.91l-1.3,5l-9.49-2.48L515.01,139.11z M532.95,160.25l0.09,0.04l15.78-25.28l4.78,2.1l-19.64,30.86l-7.76-3.4l9.43-35.35  l5.25,2.3L532.95,160.25z M559.92,140.87l4.88,2.92l-18.54,31.03l-4.88-2.91L559.92,140.87z M578.47,152.82  c4.37,3.38,4.59,7.73,1.05,12.31l-0.7,0.9l-4.25-3.29l0.92-1.18c1.58-2.04,1.36-3.45-0.06-4.56c-1.43-1.11-2.85-0.96-4.43,1.08  c-1.61,2.08-1.91,4.33-0.97,9.18c1.2,6.22,0.55,9.5-1.98,12.77c-3.54,4.57-7.85,5.42-12.26,2c-4.41-3.41-4.67-7.8-1.13-12.37  l1.36-1.76l4.25,3.29l-1.58,2.04c-1.58,2.04-1.25,3.47,0.18,4.58c1.43,1.11,2.9,1.07,4.48-0.97c1.61-2.08,1.91-4.33,0.96-9.18  c-1.2-6.21-0.55-9.5,1.98-12.77C569.83,150.31,574.1,149.44,578.47,152.82z M590.55,163.7l4.04,3.99l-25.38,25.74l-4.04-3.99  L590.55,163.7z M593.62,179.04c4.54-3.59,9.02-3.25,12.48,1.13c3.46,4.38,2.75,8.82-1.78,12.4l-14.75,11.66  c-4.54,3.59-9.02,3.25-12.48-1.13c-3.46-4.38-2.76-8.82,1.78-12.4L593.62,179.04z M582.11,195.38c-2.03,1.6-2.09,3.1-0.97,4.52  s2.6,1.7,4.62,0.1l15.32-12.11c2.03-1.6,2.09-3.1,0.97-4.52c-1.12-1.42-2.6-1.7-4.62-0.1L582.11,195.38z M610.16,204.47l-0.05-0.09  l-22.96,12.59l-2.46-4.48l31.7-17.38l3.43,6.25l-16.22,15.43l0.05,0.09l18.98-10.4l2.43,4.44l-31.7,17.38l-2.8-5.12L610.16,204.47z  "></path>	<path class="st1" d="M479.3,175.64h1.4v-13.2h-1.4V175.64z M479.3,397.56h1.4v-13.19h-1.4V397.56z M584.37,279.29v1.42h13.19v-1.42  H584.37z M375.64,279.29h-13.21v1.42h13.21V279.29z M554.31,206.71l9.33-9.32l-1-1.01l-9.32,9.32L554.31,206.71z M405.71,353.31  l-9.34,9.33l1.01,1l9.33-9.32L405.71,353.31z M553.32,354.31l9.32,9.32l1-1l-9.33-9.33L553.32,354.31z M406.71,205.7l-9.33-9.32  l-1.01,1.01l9.34,9.32L406.71,205.7z M440.72,183.3l-5.05-12.18l-1.29,0.54l5.03,12.2L440.72,183.3z M519.3,376.7l5.04,12.18  l1.31-0.53l-5.05-12.2L519.3,376.7z M576.69,240.71l12.2-5.05l-0.54-1.3l-12.21,5.05L576.69,240.71z M383.32,319.28l-12.19,5.06  l0.54,1.32l12.18-5.05L383.32,319.28z M520.59,183.85l5.05-12.2l-1.31-0.54l-5.04,12.18L520.59,183.85z M439.41,376.15l-5.03,12.2  l1.29,0.53l5.05-12.18L439.41,376.15z M576.15,320.61l12.21,5.05l0.54-1.32l-12.2-5.06L576.15,320.61z M383.84,239.41l-12.18-5.05  l-0.54,1.3l12.19,5.05L383.84,239.41z M456.38,164.84l2.58,12.93l1.38-0.27l-2.58-12.95L456.38,164.84z M499.67,382.5l2.58,12.95  l1.38-0.29l-2.57-12.93L499.67,382.5z M582.5,260.34l12.96-2.57l-0.29-1.38l-12.94,2.57L582.5,260.34z M377.5,299.68l-12.94,2.56  l0.29,1.39l12.93-2.57L377.5,299.68z M538.59,193.61l7.31-10.96l-1.17-0.78l-7.34,10.96L538.59,193.61z M421.43,366.4l-7.33,10.96  l1.17,0.79l7.34-10.96L421.43,366.4z M566.39,338.57l10.97,7.34l0.79-1.18l-10.96-7.33L566.39,338.57z M393.62,221.43l-10.97-7.33  l-0.79,1.18l10.98,7.34L393.62,221.43z M422.61,192.83l-7.34-10.96l-1.17,0.78l7.33,10.96L422.61,192.83z M537.4,367.19l7.34,10.96  l1.17-0.79l-7.31-10.96L537.4,367.19z M567.18,222.61l10.96-7.34l-0.79-1.18l-10.97,7.33L567.18,222.61z M392.84,337.39  l-10.98,7.33l0.79,1.18l10.97-7.34L392.84,337.39z M499.67,177.51l1.39,0.27l2.57-12.93l-1.38-0.29L499.67,177.51z M456.38,395.17  l1.39,0.29l2.58-12.95l-1.38-0.28L456.38,395.17z M582.23,301.06l12.94,2.57l0.28-1.39l-12.95-2.56L582.23,301.06z M377.78,258.95  l-12.93-2.57l-0.29,1.39l12.94,2.57L377.78,258.95z M467.78,163.08l1.29,13.13l1.42-0.14l-1.29-13.13L467.78,163.08z   M489.54,383.94l1.29,13.12l1.39-0.14l-1.27-13.13L489.54,383.94z M583.94,270.48l13.14-1.29l-0.14-1.41l-13.14,1.29L583.94,270.48  z M376.07,289.52l-13.13,1.31l0.13,1.41l13.15-1.3L376.07,289.52z M546.77,199.78l8.37-10.2l-1.1-0.89l-8.37,10.2L546.77,199.78z   M413.25,360.24l-8.37,10.19l1.1,0.89l8.36-10.19L413.25,360.24z M560.23,346.76l10.21,8.36l0.89-1.08l-10.19-8.37L560.23,346.76z   M399.77,213.25l-10.19-8.38l-0.89,1.1l10.19,8.37L399.77,213.25z M431.43,187.63l-6.23-11.63l-1.24,0.66l6.22,11.65L431.43,187.63  z M528.57,372.38l6.23,11.63l1.23-0.65l-6.21-11.65L528.57,372.38z M572.38,231.43l11.64-6.22l-0.68-1.25l-11.62,6.22  L572.38,231.43z M387.62,328.58L376,334.8l0.66,1.24l11.64-6.22L387.62,328.58z M514.8,167.7l-1.35-0.4l-3.82,12.63l1.35,0.4  L514.8,167.7z M445.2,392.31l1.37,0.4l3.81-12.62l-1.34-0.41L445.2,392.31z M579.67,310.96l12.6,3.84l0.43-1.36l-12.62-3.81  L579.67,310.96z M380.34,249.04l-12.62-3.86l-0.41,1.37l12.62,3.82L380.34,249.04z M445.2,167.7l3.83,12.64l1.34-0.4l-3.81-12.63  L445.2,167.7z M509.63,380.09l3.82,12.62l1.35-0.4l-3.82-12.63L509.63,380.09z M580.09,250.38l12.62-3.82l-0.4-1.37l-12.63,3.85  L580.09,250.38z M379.92,309.64l-12.62,3.81l0.41,1.36l12.62-3.84L379.92,309.64z M529.82,188.3l6.21-11.65l-1.23-0.66l-6.23,11.63  L529.82,188.3z M430.18,371.7l-6.22,11.65l1.24,0.65l6.23-11.63L430.18,371.7z M571.72,329.82l11.64,6.22l0.66-1.24l-11.64-6.22  L571.72,329.82z M388.3,230.18l-11.64-6.22l-0.66,1.25l11.64,6.22L388.3,230.18z M414.34,198.88l-8.37-10.2l-1.09,0.89l8.37,10.2  L414.34,198.88z M545.67,361.13l8.37,10.19l1.1-0.89l-8.39-10.19L545.67,361.13z M561.14,214.34l10.19-8.37l-0.89-1.1l-10.21,8.38  L561.14,214.34z M398.88,345.67l-10.19,8.37l0.89,1.08l10.19-8.36L398.88,345.67z M489.54,176.07l1.41,0.14l1.29-13.13l-1.42-0.14  L489.54,176.07z M467.78,396.93l1.41,0.14l1.29-13.12l-1.42-0.14L467.78,396.93z M583.79,290.94l13.12,1.3l0.16-1.41l-13.14-1.29  L583.79,290.94z M376.22,269.07l-13.15-1.29l-0.13,1.41l13.13,1.29L376.22,269.07z M473.54,162.61l0.65,13.19l1.4-0.08l-0.65-13.17  L473.54,162.61z M484.43,384.28l0.65,13.18l1.4-0.07l-0.66-13.2L484.43,384.28z M584.28,275.58l13.18-0.64l-0.07-1.41l-13.18,0.65  L584.28,275.58z M375.74,284.43l-13.18,0.65l0.07,1.41l13.17-0.66L375.74,284.43z M550.61,203.15l8.87-9.78l-1.06-0.94l-8.85,9.78  L550.61,203.15z M409.39,356.87l-8.86,9.77l1.06,0.94l8.84-9.76L409.39,356.87z M556.86,350.62l9.77,8.86l0.95-1.04l-9.77-8.87  L556.86,350.62z M403.15,209.38l-9.77-8.85l-0.95,1.04l9.76,8.86L403.15,209.38z M436.02,185.35l-5.64-11.93l-1.29,0.61l5.64,11.93  L436.02,185.35z M523.99,374.66l5.65,11.92l1.27-0.59l-5.64-11.93L523.99,374.66z M574.65,236.02l11.93-5.64l-0.6-1.29l-11.93,5.64  L574.65,236.02z M385.35,323.99l-11.93,5.64l0.62,1.28l11.92-5.64L385.35,323.99z M515.81,181.98l4.47-12.43l-1.36-0.48  l-4.44,12.42L515.81,181.98z M444.19,378.04l-4.46,12.41l1.32,0.49l4.46-12.43L444.19,378.04z M578.05,315.83l12.41,4.44l0.49-1.32  l-12.44-4.45L578.05,315.83z M381.97,244.17l-12.42-4.44l-0.49,1.33l12.43,4.45L381.97,244.17z M450.76,166.13l3.2,12.8l1.37-0.34  l-3.2-12.79L450.76,166.13z M504.67,381.41l3.2,12.81l1.38-0.33l-3.2-12.81L504.67,381.41z M581.41,255.33l12.82-3.21l-0.35-1.37  l-12.81,3.21L581.41,255.33z M378.6,304.68l-12.79,3.19l0.32,1.38l12.8-3.2L378.6,304.68z M534.27,190.85l6.78-11.32l-1.2-0.71  l-6.79,11.31L534.27,190.85z M425.73,369.17l-6.76,11.31l1.2,0.72l6.78-11.32L425.73,369.17z M569.17,334.26l11.31,6.79l0.73-1.23  l-11.32-6.77L569.17,334.26z M390.85,225.75l-11.32-6.78l-0.72,1.21l11.31,6.78L390.85,225.75z M418.4,195.74l-7.85-10.58  l-1.15,0.82l7.88,10.61L418.4,195.74z M541.61,364.26l7.86,10.59l1.13-0.84l-7.86-10.61L541.61,364.26z M564.24,218.41l10.61-7.87  l-0.84-1.13l-10.61,7.86L564.24,218.41z M395.75,341.61l-10.58,7.86l0.83,1.12l10.61-7.86L395.75,341.61z M494.62,176.66l1.4,0.22  l1.93-13.07l-1.4-0.2L494.62,176.66z M462.04,396.19l1.41,0.2l1.94-13.06l-1.39-0.21L462.04,396.19z M583.13,296.02l13.06,1.93  l0.21-1.4l-13.06-1.92L583.13,296.02z M376.87,263.99l-13.05-1.93l-0.21,1.39l13.06,1.94L376.87,263.99z M462.04,163.82l1.95,13.06  l1.39-0.22l-1.94-13.05L462.04,163.82z M494.62,383.34l1.93,13.06l1.4-0.2l-1.93-13.06L494.62,383.34z M583.34,265.39l13.06-1.93  l-0.21-1.4l-13.06,1.93L583.34,265.39z M376.67,294.63l-13.06,1.92l0.21,1.4l13.05-1.93L376.67,294.63z M542.74,196.6l7.86-10.61  l-1.13-0.82l-7.86,10.58L542.74,196.6z M417.27,363.4l-7.88,10.61l1.15,0.84l7.85-10.6L417.27,363.4z M563.4,342.74l10.61,7.86  l0.84-1.12l-10.61-7.86L563.4,342.74z M396.61,217.27l-10.61-7.86l-0.83,1.13l10.58,7.87L396.61,217.27z M426.96,190.13  l-6.78-11.31l-1.22,0.71l6.78,11.32L426.96,190.13z M533.05,369.88l6.79,11.33l1.2-0.74l-6.78-11.31L533.05,369.88z M569.89,226.95  l11.32-6.78l-0.73-1.21l-11.33,6.78L569.89,226.95z M390.12,333.06l-11.3,6.77l0.71,1.23l11.32-6.79L390.12,333.06z M504.67,178.59  l1.38,0.34l3.2-12.8l-1.36-0.32L504.67,178.59z M450.76,393.88l1.38,0.33l3.2-12.81l-1.37-0.34L450.76,393.88z M581.07,306.06  l12.81,3.19l0.34-1.38l-12.8-3.19L581.07,306.06z M378.93,253.96l-12.8-3.21l-0.32,1.37l12.79,3.21L378.93,253.96z M445.51,181.5  l-4.46-12.42l-1.32,0.48l4.46,12.43L445.51,181.5z M514.49,378.5l4.44,12.43l1.36-0.49l-4.47-12.41L514.49,378.5z M578.5,245.51  l12.44-4.45l-0.49-1.33l-12.43,4.44L578.5,245.51z M381.5,314.5l-12.43,4.45l0.49,1.32l12.42-4.44L381.5,314.5z M525.27,185.96  l5.64-11.92l-1.29-0.62l-5.64,11.93L525.27,185.96z M434.74,374.05l-5.64,11.93l1.29,0.59l5.64-11.92L434.74,374.05z   M574.05,325.27l11.93,5.64l0.6-1.28l-11.93-5.64L574.05,325.27z M385.96,234.73l-11.92-5.64l-0.62,1.29l11.93,5.64L385.96,234.73z   M410.43,202.21l-8.85-9.78l-1.05,0.94l8.86,9.77L410.43,202.21z M549.57,357.81l8.85,9.76l1.06-0.94l-8.87-9.77L549.57,357.81z   M557.81,210.45l9.77-8.87l-0.95-1.04l-9.77,8.85L557.81,210.45z M402.19,349.56l-9.76,8.87l0.95,1.04l9.77-8.85L402.19,349.56z   M484.43,175.72l1.39,0.08l0.66-13.19l-1.4-0.07L484.43,175.72z M473.54,397.39l1.41,0.07l0.65-13.18l-1.4-0.08L473.54,397.39z   M584.2,285.82l13.19,0.66l0.06-1.41l-13.17-0.65L584.2,285.82z M375.8,274.18l-13.18-0.65l-0.08,1.41l13.2,0.66L375.8,274.18z"></path>	<g>		<path class="st1" d="M382.28,364.21l2.93,3.41l-21.71,18.66l-2.93-3.41L382.28,364.21z"></path>		<path class="st1" d="M384.01,377.9l-14.42,14.91l-2.91-2.82l19.91-20.58l4.06,3.93l-8.6,15.53l11.92-12.32l2.88,2.79l-19.91,20.58   l-3.32-3.21L384.01,377.9z"></path>		<path class="st1" d="M398.31,380.55l5.69,4.27c3.63,2.73,3.89,5.99,1.12,9.69l-8.69,11.58c-2.77,3.7-5.98,4.36-9.61,1.63   l-5.69-4.27L398.31,380.55z M399.46,386.53l-12.28,16.36l2.03,1.52c1.15,0.86,2.25,0.82,3.5-0.85l8.94-11.91   c1.25-1.67,0.98-2.74-0.16-3.6L399.46,386.53z"></path>		<path class="st1" d="M414.43,391.83l-11.04,19.13c-1.04,1.81-0.61,2.86,0.63,3.57c1.24,0.72,2.37,0.56,3.41-1.24l11.04-19.13   l3.69,2.13l-10.9,18.88c-2.31,4-5.58,5.09-9.41,2.88c-3.83-2.21-4.52-5.59-2.21-9.59l10.9-18.88L414.43,391.83z"></path>		<path class="st1" d="M429.5,399.2c4.05,1.76,5.05,5,3.22,9.24l-0.36,0.82l-3.9-1.69l0.47-1.09c0.83-1.91,0.37-2.92-0.94-3.48   c-1.31-0.57-2.36-0.22-3.19,1.7c-0.78,1.8-0.45,3.5,0.23,5.23c0.32,0.9,0.7,1.77,1.15,2.68c0.81,1.83,1.47,3.8,1.46,5.98   c0.01,1.12-0.28,2.29-0.81,3.53c-1.84,4.24-4.96,5.69-9.02,3.94c-4.05-1.76-5.13-5.03-3.29-9.27l0.7-1.61l3.9,1.69l-0.81,1.88   c-0.83,1.91-0.28,2.91,1.03,3.48c1.31,0.57,2.42,0.29,3.25-1.62c0.78-1.8,0.45-3.51-0.21-5.26c-0.34-0.86-0.72-1.74-1.12-2.67   c-0.87-1.8-1.53-3.78-1.52-5.96c-0.01-1.12,0.28-2.29,0.81-3.53C422.4,398.92,425.45,397.44,429.5,399.2z"></path>		<path class="st1" d="M435.6,402.2l13.28,4.12l-1.21,3.91l-4.49-1.4l-7.28,23.44l-4.3-1.33l7.28-23.44l-4.49-1.39L435.6,402.2z"></path>		<path class="st1" d="M453.46,436.38c0-0.21-0.05-0.38-0.06-0.55c-0.06-0.34-0.05-0.8,0.09-1.57c0.03-0.37,0.12-0.85,0.23-1.42   l0.85-4.42c0.5-2.61-0.16-3.74-2.21-4.13l-1.53-0.29l-2.2,11.45l-4.42-0.85l5.39-28.12l6.67,1.28c4.62,0.89,6.14,3.39,5.31,7.72   l-0.42,2.21c-0.55,2.89-1.88,4.6-3.99,5.15c2.07,1.36,2.35,3.62,1.78,6.55l-0.83,4.34c-0.27,1.41-0.41,2.34-0.17,3.51   L453.46,436.38z M453.27,411.35l-1.66,8.64l1.73,0.33c1.65,0.32,2.79-0.21,3.22-2.46l0.53-2.77c0.39-2.05-0.13-3.02-1.7-3.33   L453.27,411.35z"></path>		<path class="st1" d="M466.98,428.59l-4.24-19.51l4.69,0.35l2.45,13.27l4.4-12.76l4.28,0.32l-7.1,18.67l-0.71,9.46l-4.49-0.33   L466.98,428.59z"></path>		<path class="st1" d="M502.04,437.3l-4.52,0.41l-1.25-5.1l-5.5,0.5l-0.3,5.24l-4.11,0.37l1.97-28.93l6.56-0.6L502.04,437.3z    M490.99,429.19l4.32-0.39l-3.47-14.22L490.99,429.19z"></path>		<path class="st1" d="M500.31,408.52l4.41-0.9l4.93,24.04l7.25-1.49l0.82,4.01l-11.66,2.39L500.31,408.52z"></path>		<path class="st1" d="M512.82,405.84l4.29-1.35l7.34,23.42l7.07-2.21l1.22,3.9l-11.36,3.56L512.82,405.84z"></path>		<path class="st1" d="M525.17,401.74l4.17-1.68l10.7,26.56l-4.17,1.68L525.17,401.74z"></path>		<path class="st1" d="M557.49,418.19l-4.04,2.06l-3.05-4.28l-4.92,2.51l1.66,4.98l-3.68,1.88l-8.92-27.59l5.87-2.99L557.49,418.19z    M544.22,414.76l3.86-1.97l-8.5-11.92L544.22,414.76z"></path>		<path class="st1" d="M552.91,396.53l11.59,17.2l-3.36,2.26l-16-23.75l4.68-3.16l13.41,11.63l-9.58-14.21l3.32-2.24l16,23.75   l-3.83,2.58L552.91,396.53z"></path>		<path class="st1" d="M580.1,388.1l2.49,2.88c3.02,3.5,2.98,6.94-0.37,9.83c-3.34,2.89-6.76,2.44-9.78-1.06l-9.74-11.26   c-3.02-3.5-2.98-6.95,0.37-9.83c3.34-2.89,6.76-2.44,9.78,1.06l1.82,2.1l-3.22,2.78l-2.01-2.32c-1.36-1.58-2.53-1.55-3.61-0.61   s-1.28,2.08,0.08,3.66l10.11,11.7c1.36,1.58,2.5,1.52,3.58,0.58c1.08-0.94,1.31-2.05-0.05-3.63l-2.68-3.09L580.1,388.1z"></path>		<path class="st1" d="M581.35,378.29l4.19-4.54l3.01,2.77l-4.19,4.54l6.16,5.69l5.27-5.71l3,2.77l-8.32,9.02l-21.04-19.42   l8.32-9.02l3.01,2.77l-5.27,5.71L581.35,378.29z"></path>	</g>	<path class="st2" d="M499.05,262.96v-5.71h-4.69c-0.18-1.09-0.18-1.08,0.77-1.44c0.66-0.25,1.33-0.5,1.97-0.81  c5.3-2.59,9.25-6.53,11.7-11.91c1.95-4.28,2.6-8.77,1.92-13.43c-0.72-4.98-2.78-9.35-6.2-13.03c-3.14-3.38-6.95-5.73-11.45-6.91  c-6.26-1.65-12.24-0.92-17.95,2.1c-2.41,1.28-4.53,2.98-6.35,5.01c-1.94,2.17-3.54,4.56-4.53,7.31c-0.65,1.8-1.13,3.67-1.66,5.43  c-0.6-0.67-1.25-1.48-1.98-2.19c-2.27-2.17-4.92-3.66-7.99-4.4c-3.52-0.84-6.97-0.62-10.34,0.65c-2.6,0.98-4.82,2.52-6.69,4.6  c-2.77,3.08-4.33,6.69-4.47,10.81c-0.22,6.26,2.24,11.29,7.28,15.04c0.16,0.12,0.33,0.36,0.34,0.55c0.04,0.86,0.02,1.71,0.02,2.65  h-5.99V294h66.3v-7.15c4.16,2.07,8.26,4.12,12.37,6.17c0.07,0,0.14-0.01,0.21-0.01h3.83v-38.26  C509.98,257.5,504.57,260.2,499.05,262.96z M441.7,251.04c-2.56,0.05-4.62-1.87-4.66-4.34c-0.05-2.53,1.89-4.58,4.36-4.66  c2.33-0.08,4.71,1.95,4.58,4.48C446.03,248.94,444.08,250.99,441.7,251.04z M441.58,238.04c-2.45,0.01-4.55-2.09-4.5-4.53  c0.06-2.94,2.54-4.59,4.55-4.44c2.48,0.01,4.44,1.99,4.43,4.48C446.06,236.01,444.04,238.02,441.58,238.04z M455.42,251.04  c-2.44-0.02-4.45-2.05-4.44-4.51c0.01-2.53,2.06-4.48,4.68-4.48c2.29,0,4.31,2.13,4.3,4.52  C459.95,249.09,457.95,251.05,455.42,251.04z M455.49,238c-2.47-0.03-4.5-2.06-4.48-4.49c0.02-2.46,2.11-4.5,4.59-4.47  c2.45,0.03,4.51,2.08,4.42,4.53C459.94,236.04,458.08,238.01,455.49,238z M461,252.03c2.05-2.16,3.47-4.62,4.32-7.61  c1.63,3,3.69,5.45,6.29,7.61H461z M477.06,248.58c-3.51,0-6.27-2.75-6.27-6.25c0-3.48,2.76-6.23,6.24-6.23  c3.43,0,6.24,2.78,6.24,6.17C483.27,245.81,480.55,248.58,477.06,248.58z M477.14,230.48c-3.49,0.02-6.37-2.88-6.24-6.27  c-0.12-3.29,2.67-6.07,5.83-6.21c3.93-0.18,6.55,2.86,6.61,5.96C483.4,227.64,480.69,230.46,477.14,230.48z M496.53,217.98  c3.42-0.02,6.33,2.88,6.29,6.29c-0.03,3.42-2.88,6.22-6.3,6.21c-3.44-0.01-6.24-2.82-6.24-6.25  C490.29,220.79,493.07,218,496.53,217.98z M490.2,242.27c0.02-3.38,2.84-6.18,6.26-6.16c3.63,0.02,6.39,2.87,6.24,6.62  c-0.12,3.06-2.75,5.95-6.27,5.85C492.94,248.57,490.18,245.77,490.2,242.27z"></path>	<path class="st2" d="M516.61,293h4.29v-41.96c-1.35,0.68-2.58,1.32-3.84,1.91c-0.36,0.17-0.44,0.38-0.44,0.74  c0.01,2.22,0.01,4.43,0.01,6.65C516.63,271.23,516.63,282.12,516.61,293z"></path>	<path class="st1" d="M440.76,317.9h10.47v7.38h-10.47v21.32h-8.11v-51.63h21.46v7.38h-13.35V317.9z"></path>	<path class="st1" d="M456.39,294.96h27.08v7.38h-10.48v44.26h-8.11v-44.26h-8.48V294.96z"></path>	<path class="st1" d="M485.75,294.96h8.11v51.63h-8.11V294.96z"></path>	<path class="st1" d="M526.76,346.6h-8.19l-1.4-9.37h-9.96l-1.4,9.37h-7.45l8.26-51.63h11.88L526.76,346.6z M508.25,330.22h7.82  l-3.83-26.11h-0.15L508.25,330.22z"></path>	<path class="st1" d="M623.12,280.58c-6.38,0-11.56,5.17-11.56,11.56c0,6.38,5.18,11.56,11.56,11.56c6.38,0,11.56-5.17,11.56-11.56  C634.67,285.76,629.5,280.58,623.12,280.58z M612.85,290.24c0-1.81,1.46-3.27,3.27-3.27c1.8,0,3.27,1.46,3.27,3.27  c0,1.8-1.46,3.27-3.27,3.27C614.31,293.51,612.85,292.05,612.85,290.24z M618.16,300.7c-1.8,0-3.27-1.46-3.27-3.27  c0-1.81,1.46-3.27,3.27-3.27c1.8,0,3.27,1.46,3.27,3.27C621.42,299.24,619.96,300.7,618.16,300.7z M618.16,285.29  c0-1.8,1.46-3.27,3.27-3.27c1.8,0,3.27,1.46,3.27,3.27s-1.46,3.27-3.27,3.27C619.62,288.56,618.16,287.1,618.16,285.29z   M623.12,290.7c0.8,0,1.44,0.65,1.44,1.44c0,0.8-0.65,1.44-1.44,1.44s-1.45-0.65-1.45-1.44  C621.67,291.34,622.32,290.7,623.12,290.7z M625.28,302.51c-1.8,0-3.27-1.46-3.27-3.27c0-1.8,1.46-3.27,3.27-3.27  c1.8,0,3.27,1.46,3.27,3.27C628.55,301.04,627.08,302.51,625.28,302.51z M633.62,294.17c0,1.81-1.46,3.27-3.27,3.27  c-1.8,0-3.27-1.46-3.27-3.27c0-1.8,1.46-3.27,3.27-3.27C632.16,290.9,633.62,292.36,633.62,294.17z M628.28,290.24  c-1.81,0-3.27-1.46-3.27-3.27c0-1.8,1.46-3.27,3.27-3.27c1.8,0,3.27,1.46,3.27,3.27C631.55,288.78,630.09,290.24,628.28,290.24z"></path>	<path class="st1" d="M335.89,280.15c-6.38,0-11.56,5.17-11.56,11.56c0,6.38,5.18,11.56,11.56,11.56c6.38,0,11.56-5.17,11.56-11.56  C347.45,285.33,342.27,280.15,335.89,280.15z M325.62,289.81c0-1.81,1.46-3.27,3.27-3.27c1.8,0,3.27,1.46,3.27,3.27  c0,1.8-1.46,3.27-3.27,3.27C327.08,293.08,325.62,291.62,325.62,289.81z M330.93,300.27c-1.8,0-3.27-1.46-3.27-3.27  c0-1.81,1.46-3.27,3.27-3.27c1.8,0,3.27,1.46,3.27,3.27C334.2,298.81,332.73,300.27,330.93,300.27z M330.93,284.86  c0-1.8,1.46-3.27,3.27-3.27s3.27,1.46,3.27,3.27c0,1.8-1.46,3.27-3.27,3.27S330.93,286.67,330.93,284.86z M335.89,290.26  c0.8,0,1.44,0.65,1.44,1.44c0,0.8-0.65,1.44-1.44,1.44c-0.8,0-1.45-0.65-1.45-1.44C334.44,290.91,335.09,290.26,335.89,290.26z   M338.05,302.08c-1.8,0-3.27-1.46-3.27-3.27c0-1.8,1.46-3.27,3.27-3.27c1.8,0,3.27,1.46,3.27,3.27  C341.32,300.61,339.86,302.08,338.05,302.08z M346.39,293.74c0,1.81-1.46,3.27-3.27,3.27c-1.8,0-3.27-1.46-3.27-3.27  c0-1.8,1.46-3.27,3.27-3.27C344.93,290.47,346.39,291.93,346.39,293.74z M341.06,289.81c-1.81,0-3.27-1.46-3.27-3.27  c0-1.8,1.46-3.27,3.27-3.27c1.8,0,3.27,1.46,3.27,3.27C344.32,288.35,342.86,289.81,341.06,289.81z"></path></g></svg>