<svg xmlns="http://www.w3.org/2000/svg" viewBox="0 0 220 110">
  <!-- i dot -->
  <circle cx="26" cy="12" r="13" fill="#00BCD4"/>
  <!-- i body -->
  <path d="M13,30 C13,26 17,22 21,22 h10 c4,0 8,4 8,8 v36 c0,4-4,8-8,8 H21 c-4,0-8-4-8-8 Z" fill="#00BCD4"/>
  <!-- t -->
  <path d="M56,6 h18 v16 h12 v14 h-12 v24 c0,6 3,10 10,10 h4 v-0 H56 V6z" fill="#222"/>
  <!-- t cross bar -->
  <rect x="44" y="22" width="42" height="14" rx="2" fill="#222"/>
  <!-- v (two strokes with overlap) -->
  <path d="M98,22 L118,72 L138,22" stroke="#F5A623" stroke-width="22" fill="none" stroke-linejoin="round" stroke-linecap="round"/>
  <!-- magenta overlap in v -->
  <path d="M102,28 L118,68 L126,46 C120,34 112,28 102,28z" fill="#C2185B" opacity="0.9"/>
  <!-- olive/dark overlap between t and v -->
  <path d="M86,36 Q98,60 108,66 L98,42 Z" fill="#8B8B00" opacity="0.5"/>
  <!-- STUDIOS text -->
  <text x="110" y="100" text-anchor="middle" font-family="'Arial Black', 'Helvetica Neue', sans-serif" font-size="20" font-weight="900" fill="#222" letter-spacing="6">STUDIOS</text>
</svg>
